<?xml version="1.0" encoding="UTF-8" standalone="no"?>
<svg
   xmlns:dc="http://purl.org/dc/elements/1.1/"
   xmlns:cc="http://creativecommons.org/ns#"
   xmlns:rdf="http://www.w3.org/1999/02/22-rdf-syntax-ns#"
   xmlns:svg="http://www.w3.org/2000/svg"
   xmlns="http://www.w3.org/2000/svg"
   xmlns:sodipodi="http://sodipodi.sourceforge.net/DTD/sodipodi-0.dtd"
   xmlns:inkscape="http://www.inkscape.org/namespaces/inkscape"
   version="1.1"
   id="Capa_1"
   x="0px"
   y="0px"
   viewBox="0 0 27.971 27.971"
   style="enable-background:new 0 0 27.971 27.971;"
   xml:space="preserve"
   sodipodi:docname="loop-one-icon.svg"
   inkscape:version="1.0.1 (3bc2e813f5, 2020-09-07)"><metadata
   id="metadata874"><rdf:RDF><cc:Work
       rdf:about=""><dc:format>image/svg+xml</dc:format><dc:type
         rdf:resource="http://purl.org/dc/dcmitype/StillImage" /><dc:title></dc:title></cc:Work></rdf:RDF></metadata><defs
   id="defs872" /><sodipodi:namedview
   pagecolor="#ffffff"
   bordercolor="#666666"
   borderopacity="1"
   objecttolerance="10"
   gridtolerance="10"
   guidetolerance="10"
   inkscape:pageopacity="0"
   inkscape:pageshadow="2"
   inkscape:window-width="1920"
   inkscape:window-height="1017"
   id="namedview870"
   showgrid="false"
   inkscape:zoom="25.883329"
   inkscape:cx="13.9855"
   inkscape:cy="13.9855"
   inkscape:window-x="1592"
   inkscape:window-y="-8"
   inkscape:window-maximized="1"
   inkscape:current-layer="Capa_1" />
<g
   id="g837">
	<g
   id="c189_arrow">
		<path
   d="M23.92,14.746l-4.05-4.051h2.374l-0.068-0.177c-1.407-3.561-4.882-6.088-8.95-6.088c-5.312,0-9.62,4.307-9.62,9.616    c0,5.316,4.308,9.623,9.62,9.623c3.907,0,7.271-2.128,8.775-5.479l3.854,0.039c-0.013,0.03-3.032,8.918-12.693,8.918    C5.893,27.148,0,21.254,0,13.987C0,6.715,5.893,0.824,13.161,0.824c6.08,0,11.195,4.116,12.709,9.715l0.032,0.156h2.069    L23.92,14.746z"
   id="path833"
   style="fill:#000000;fill-opacity:1" />
	</g>
	<g
   id="Capa_1_105_">
	</g>
</g>
<g
   id="g839">
</g>
<g
   id="g841">
</g>
<g
   id="g843">
</g>
<g
   id="g845">
</g>
<g
   id="g847">
</g>
<g
   id="g849">
</g>
<g
   id="g851">
</g>
<g
   id="g853">
</g>
<g
   id="g855">
</g>
<g
   id="g857">
</g>
<g
   id="g859">
</g>
<g
   id="g861">
</g>
<g
   id="g863">
</g>
<g
   id="g865">
</g>
<g
   id="g867">
</g>
<g
   id="g884"><rect
     style="fill:#000000;fill-opacity:1;fill-rule:evenodd"
     id="rect878"
     width="2.4690249"
     height="10.011385"
     x="12.402689"
     y="9.1737461" /><rect
     style="fill:#000000;fill-opacity:1;fill-rule:evenodd;stroke-width:0.872278"
     id="rect880"
     width="1.1837788"
     height="1.758757"
     x="11.21891"
     y="9.1737461" /></g></svg>
